ISO-10303-21;
HEADER;
/* Generated by software containing ST-Developer
 * from STEP Tools, Inc. (www.steptools.com) 
 */

FILE_DESCRIPTION(
/* description */ ('KiCad electronic assembly'),
/* implementation_level */ '2;1');

FILE_NAME(
/* name */ 'Steno Keyboard Case.step',
/* time_stamp */ '2026-08-29T15:41:23-07:00',
/* author */ (''),
/* organization */ (''),
/* preprocessor_version */ 'ST-DEVELOPER v20.1',
/* originating_system */ 'Autodesk Translation Framework v15.8.0.0',
/* authorisation */ '');

FILE_SCHEMA (('AUTOMOTIVE_DESIGN { 1 0 10303 214 3 1 1 }'));
ENDSEC;

DATA;
#10=MECHANICAL_DESIGN_GEOMETRIC_PRESENTATION_REPRESENTATION('',(#13),#591);
#11=SHAPE_REPRESENTATION_RELATIONSHIP('SRR','None',#597,#12);
#12=ADVANCED_BREP_SHAPE_REPRESENTATION('',(#14),#590);
#13=STYLED_ITEM('',(#606),#14);
#14=MANIFOLD_SOLID_BREP('Body1',#347);
#15=FACE_BOUND('',#64,.T.);
#16=FACE_BOUND('',#67,.T.);
#17=FACE_BOUND('',#70,.T.);
#18=FACE_BOUND('',#73,.T.);
#19=FACE_BOUND('',#76,.T.);
#20=FACE_BOUND('',#87,.T.);
#21=FACE_BOUND('',#88,.T.);
#22=FACE_BOUND('',#89,.T.);
#23=FACE_BOUND('',#90,.T.);
#24=FACE_BOUND('',#91,.T.);
#25=FACE_BOUND('',#93,.T.);
#26=FACE_BOUND('',#94,.T.);
#27=FACE_BOUND('',#95,.T.);
#28=FACE_BOUND('',#96,.T.);
#29=FACE_BOUND('',#97,.T.);
#30=PLANE('',#352);
#31=PLANE('',#357);
#32=PLANE('',#362);
#33=PLANE('',#367);
#34=PLANE('',#372);
#35=PLANE('',#384);
#36=PLANE('',#385);
#37=PLANE('',#386);
#38=PLANE('',#387);
#39=PLANE('',#388);
#40=PLANE('',#389);
#41=FACE_OUTER_BOUND('',#62,.T.);
#42=FACE_OUTER_BOUND('',#63,.T.);
#43=FACE_OUTER_BOUND('',#65,.T.);
#44=FACE_OUTER_BOUND('',#66,.T.);
#45=FACE_OUTER_BOUND('',#68,.T.);
#46=FACE_OUTER_BOUND('',#69,.T.);
#47=FACE_OUTER_BOUND('',#71,.T.);
#48=FACE_OUTER_BOUND('',#72,.T.);
#49=FACE_OUTER_BOUND('',#74,.T.);
#50=FACE_OUTER_BOUND('',#75,.T.);
#51=FACE_OUTER_BOUND('',#77,.T.);
#52=FACE_OUTER_BOUND('',#78,.T.);
#53=FACE_OUTER_BOUND('',#79,.T.);
#54=FACE_OUTER_BOUND('',#80,.T.);
#55=FACE_OUTER_BOUND('',#81,.T.);
#56=FACE_OUTER_BOUND('',#82,.T.);
#57=FACE_OUTER_BOUND('',#83,.T.);
#58=FACE_OUTER_BOUND('',#84,.T.);
#59=FACE_OUTER_BOUND('',#85,.T.);
#60=FACE_OUTER_BOUND('',#86,.T.);
#61=FACE_OUTER_BOUND('',#92,.T.);
#62=EDGE_LOOP('',(#232,#233,#234,#235));
#63=EDGE_LOOP('',(#236));
#64=EDGE_LOOP('',(#237));
#65=EDGE_LOOP('',(#238,#239,#240,#241));
#66=EDGE_LOOP('',(#242));
#67=EDGE_LOOP('',(#243));
#68=EDGE_LOOP('',(#244,#245,#246,#247));
#69=EDGE_LOOP('',(#248));
#70=EDGE_LOOP('',(#249));
#71=EDGE_LOOP('',(#250,#251,#252,#253));
#72=EDGE_LOOP('',(#254));
#73=EDGE_LOOP('',(#255));
#74=EDGE_LOOP('',(#256,#257,#258,#259));
#75=EDGE_LOOP('',(#260));
#76=EDGE_LOOP('',(#261));
#77=EDGE_LOOP('',(#262,#263,#264,#265));
#78=EDGE_LOOP('',(#266,#267,#268,#269));
#79=EDGE_LOOP('',(#270,#271,#272,#273));
#80=EDGE_LOOP('',(#274,#275,#276,#277));
#81=EDGE_LOOP('',(#278,#279,#280,#281));
#82=EDGE_LOOP('',(#282,#283,#284,#285));
#83=EDGE_LOOP('',(#286,#287,#288,#289));
#84=EDGE_LOOP('',(#290,#291,#292,#293));
#85=EDGE_LOOP('',(#294,#295,#296,#297));
#86=EDGE_LOOP('',(#298,#299,#300,#301));
#87=EDGE_LOOP('',(#302));
#88=EDGE_LOOP('',(#303));
#89=EDGE_LOOP('',(#304));
#90=EDGE_LOOP('',(#305));
#91=EDGE_LOOP('',(#306));
#92=EDGE_LOOP('',(#307,#308,#309,#310));
#93=EDGE_LOOP('',(#311));
#94=EDGE_LOOP('',(#312));
#95=EDGE_LOOP('',(#313));
#96=EDGE_LOOP('',(#314));
#97=EDGE_LOOP('',(#315));
#98=LINE('',#501,#120);
#99=LINE('',#510,#121);
#100=LINE('',#519,#122);
#101=LINE('',#528,#123);
#102=LINE('',#537,#124);
#103=LINE('',#544,#125);
#104=LINE('',#548,#126);
#105=LINE('',#552,#127);
#106=LINE('',#556,#128);
#107=LINE('',#560,#129);
#108=LINE('',#565,#130);
#109=LINE('',#567,#131);
#110=LINE('',#569,#132);
#111=LINE('',#570,#133);
#112=LINE('',#573,#134);
#113=LINE('',#575,#135);
#114=LINE('',#576,#136);
#115=LINE('',#579,#137);
#116=LINE('',#581,#138);
#117=LINE('',#582,#139);
#118=LINE('',#584,#140);
#119=LINE('',#585,#141);
#120=VECTOR('',#396,2.5);
#121=VECTOR('',#407,2.5);
#122=VECTOR('',#418,2.5);
#123=VECTOR('',#429,2.5);
#124=VECTOR('',#440,2.5);
#125=VECTOR('',#449,1.6);
#126=VECTOR('',#454,1.59999999999998);
#127=VECTOR('',#459,1.6);
#128=VECTOR('',#464,1.6);
#129=VECTOR('',#469,1.6);
#130=VECTOR('',#474,10.);
#131=VECTOR('',#475,10.);
#132=VECTOR('',#476,10.);
#133=VECTOR('',#477,10.);
#134=VECTOR('',#480,10.);
#135=VECTOR('',#481,10.);
#136=VECTOR('',#482,10.);
#137=VECTOR('',#485,10.);
#138=VECTOR('',#486,10.);
#139=VECTOR('',#487,10.);
#140=VECTOR('',#490,10.);
#141=VECTOR('',#491,10.);
#142=CIRCLE('',#350,2.5);
#143=CIRCLE('',#351,2.5);
#144=CIRCLE('',#353,1.6);
#145=CIRCLE('',#355,2.5);
#146=CIRCLE('',#356,2.5);
#147=CIRCLE('',#358,1.59999999999998);
#148=CIRCLE('',#360,2.5);
#149=CIRCLE('',#361,2.5);
#150=CIRCLE('',#363,1.6);
#151=CIRCLE('',#365,2.5);
#152=CIRCLE('',#366,2.5);
#153=CIRCLE('',#368,1.6);
#154=CIRCLE('',#370,2.5);
#155=CIRCLE('',#371,2.5);
#156=CIRCLE('',#373,1.6);
#157=CIRCLE('',#375,1.6);
#158=CIRCLE('',#377,1.59999999999998);
#159=CIRCLE('',#379,1.6);
#160=CIRCLE('',#381,1.6);
#161=CIRCLE('',#383,1.6);
#162=VERTEX_POINT('',#498);
#163=VERTEX_POINT('',#500);
#164=VERTEX_POINT('',#504);
#165=VERTEX_POINT('',#507);
#166=VERTEX_POINT('',#509);
#167=VERTEX_POINT('',#513);
#168=VERTEX_POINT('',#516);
#169=VERTEX_POINT('',#518);
#170=VERTEX_POINT('',#522);
#171=VERTEX_POINT('',#525);
#172=VERTEX_POINT('',#527);
#173=VERTEX_POINT('',#531);
#174=VERTEX_POINT('',#534);
#175=VERTEX_POINT('',#536);
#176=VERTEX_POINT('',#540);
#177=VERTEX_POINT('',#543);
#178=VERTEX_POINT('',#547);
#179=VERTEX_POINT('',#551);
#180=VERTEX_POINT('',#555);
#181=VERTEX_POINT('',#559);
#182=VERTEX_POINT('',#563);
#183=VERTEX_POINT('',#564);
#184=VERTEX_POINT('',#566);
#185=VERTEX_POINT('',#568);
#186=VERTEX_POINT('',#572);
#187=VERTEX_POINT('',#574);
#188=VERTEX_POINT('',#578);
#189=VERTEX_POINT('',#580);
#190=EDGE_CURVE('',#162,#162,#142,.T.);
#191=EDGE_CURVE('',#162,#163,#98,.T.);
#192=EDGE_CURVE('',#163,#163,#143,.T.);
#193=EDGE_CURVE('',#164,#164,#144,.T.);
#194=EDGE_CURVE('',#165,#165,#145,.T.);
#195=EDGE_CURVE('',#165,#166,#99,.T.);
#196=EDGE_CURVE('',#166,#166,#146,.T.);
#197=EDGE_CURVE('',#167,#167,#147,.T.);
#198=EDGE_CURVE('',#168,#168,#148,.T.);
#199=EDGE_CURVE('',#168,#169,#100,.T.);
#200=EDGE_CURVE('',#169,#169,#149,.T.);
#201=EDGE_CURVE('',#170,#170,#150,.T.);
#202=EDGE_CURVE('',#171,#171,#151,.T.);
#203=EDGE_CURVE('',#171,#172,#101,.T.);
#204=EDGE_CURVE('',#172,#172,#152,.T.);
#205=EDGE_CURVE('',#173,#173,#153,.T.);
#206=EDGE_CURVE('',#174,#174,#154,.T.);
#207=EDGE_CURVE('',#174,#175,#102,.T.);
#208=EDGE_CURVE('',#175,#175,#155,.T.);
#209=EDGE_CURVE('',#176,#176,#156,.T.);
#210=EDGE_CURVE('',#164,#177,#103,.T.);
#211=EDGE_CURVE('',#177,#177,#157,.T.);
#212=EDGE_CURVE('',#167,#178,#104,.T.);
#213=EDGE_CURVE('',#178,#178,#158,.T.);
#214=EDGE_CURVE('',#176,#179,#105,.T.);
#215=EDGE_CURVE('',#179,#179,#159,.T.);
#216=EDGE_CURVE('',#173,#180,#106,.T.);
#217=EDGE_CURVE('',#180,#180,#160,.T.);
#218=EDGE_CURVE('',#170,#181,#107,.T.);
#219=EDGE_CURVE('',#181,#181,#161,.T.);
#220=EDGE_CURVE('',#182,#183,#108,.T.);
#221=EDGE_CURVE('',#182,#184,#109,.T.);
#222=EDGE_CURVE('',#185,#184,#110,.T.);
#223=EDGE_CURVE('',#183,#185,#111,.T.);
#224=EDGE_CURVE('',#183,#186,#112,.T.);
#225=EDGE_CURVE('',#187,#185,#113,.T.);
#226=EDGE_CURVE('',#186,#187,#114,.T.);
#227=EDGE_CURVE('',#186,#188,#115,.T.);
#228=EDGE_CURVE('',#189,#187,#116,.T.);
#229=EDGE_CURVE('',#188,#189,#117,.T.);
#230=EDGE_CURVE('',#188,#182,#118,.T.);
#231=EDGE_CURVE('',#184,#189,#119,.T.);
#232=ORIENTED_EDGE('',*,*,#190,.F.);
#233=ORIENTED_EDGE('',*,*,#191,.T.);
#234=ORIENTED_EDGE('',*,*,#192,.T.);
#235=ORIENTED_EDGE('',*,*,#191,.F.);
#236=ORIENTED_EDGE('',*,*,#192,.F.);
#237=ORIENTED_EDGE('',*,*,#193,.F.);
#238=ORIENTED_EDGE('',*,*,#194,.F.);
#239=ORIENTED_EDGE('',*,*,#195,.T.);
#240=ORIENTED_EDGE('',*,*,#196,.T.);
#241=ORIENTED_EDGE('',*,*,#195,.F.);
#242=ORIENTED_EDGE('',*,*,#196,.F.);
#243=ORIENTED_EDGE('',*,*,#197,.F.);
#244=ORIENTED_EDGE('',*,*,#198,.F.);
#245=ORIENTED_EDGE('',*,*,#199,.T.);
#246=ORIENTED_EDGE('',*,*,#200,.T.);
#247=ORIENTED_EDGE('',*,*,#199,.F.);
#248=ORIENTED_EDGE('',*,*,#200,.F.);
#249=ORIENTED_EDGE('',*,*,#201,.F.);
#250=ORIENTED_EDGE('',*,*,#202,.F.);
#251=ORIENTED_EDGE('',*,*,#203,.T.);
#252=ORIENTED_EDGE('',*,*,#204,.T.);
#253=ORIENTED_EDGE('',*,*,#203,.F.);
#254=ORIENTED_EDGE('',*,*,#204,.F.);
#255=ORIENTED_EDGE('',*,*,#205,.F.);
#256=ORIENTED_EDGE('',*,*,#206,.F.);
#257=ORIENTED_EDGE('',*,*,#207,.T.);
#258=ORIENTED_EDGE('',*,*,#208,.T.);
#259=ORIENTED_EDGE('',*,*,#207,.F.);
#260=ORIENTED_EDGE('',*,*,#208,.F.);
#261=ORIENTED_EDGE('',*,*,#209,.F.);
#262=ORIENTED_EDGE('',*,*,#193,.T.);
#263=ORIENTED_EDGE('',*,*,#210,.T.);
#264=ORIENTED_EDGE('',*,*,#211,.T.);
#265=ORIENTED_EDGE('',*,*,#210,.F.);
#266=ORIENTED_EDGE('',*,*,#197,.T.);
#267=ORIENTED_EDGE('',*,*,#212,.T.);
#268=ORIENTED_EDGE('',*,*,#213,.T.);
#269=ORIENTED_EDGE('',*,*,#212,.F.);
#270=ORIENTED_EDGE('',*,*,#209,.T.);
#271=ORIENTED_EDGE('',*,*,#214,.T.);
#272=ORIENTED_EDGE('',*,*,#215,.T.);
#273=ORIENTED_EDGE('',*,*,#214,.F.);
#274=ORIENTED_EDGE('',*,*,#205,.T.);
#275=ORIENTED_EDGE('',*,*,#216,.T.);
#276=ORIENTED_EDGE('',*,*,#217,.T.);
#277=ORIENTED_EDGE('',*,*,#216,.F.);
#278=ORIENTED_EDGE('',*,*,#201,.T.);
#279=ORIENTED_EDGE('',*,*,#218,.T.);
#280=ORIENTED_EDGE('',*,*,#219,.T.);
#281=ORIENTED_EDGE('',*,*,#218,.F.);
#282=ORIENTED_EDGE('',*,*,#220,.F.);
#283=ORIENTED_EDGE('',*,*,#221,.T.);
#284=ORIENTED_EDGE('',*,*,#222,.F.);
#285=ORIENTED_EDGE('',*,*,#223,.F.);
#286=ORIENTED_EDGE('',*,*,#224,.F.);
#287=ORIENTED_EDGE('',*,*,#223,.T.);
#288=ORIENTED_EDGE('',*,*,#225,.F.);
#289=ORIENTED_EDGE('',*,*,#226,.F.);
#290=ORIENTED_EDGE('',*,*,#227,.F.);
#291=ORIENTED_EDGE('',*,*,#226,.T.);
#292=ORIENTED_EDGE('',*,*,#228,.F.);
#293=ORIENTED_EDGE('',*,*,#229,.F.);
#294=ORIENTED_EDGE('',*,*,#230,.F.);
#295=ORIENTED_EDGE('',*,*,#229,.T.);
#296=ORIENTED_EDGE('',*,*,#231,.F.);
#297=ORIENTED_EDGE('',*,*,#221,.F.);
#298=ORIENTED_EDGE('',*,*,#231,.T.);
#299=ORIENTED_EDGE('',*,*,#228,.T.);
#300=ORIENTED_EDGE('',*,*,#225,.T.);
#301=ORIENTED_EDGE('',*,*,#222,.T.);
#302=ORIENTED_EDGE('',*,*,#206,.T.);
#303=ORIENTED_EDGE('',*,*,#202,.T.);
#304=ORIENTED_EDGE('',*,*,#198,.T.);
#305=ORIENTED_EDGE('',*,*,#194,.T.);
#306=ORIENTED_EDGE('',*,*,#190,.T.);
#307=ORIENTED_EDGE('',*,*,#230,.T.);
#308=ORIENTED_EDGE('',*,*,#220,.T.);
#309=ORIENTED_EDGE('',*,*,#224,.T.);
#310=ORIENTED_EDGE('',*,*,#227,.T.);
#311=ORIENTED_EDGE('',*,*,#219,.F.);
#312=ORIENTED_EDGE('',*,*,#217,.F.);
#313=ORIENTED_EDGE('',*,*,#215,.F.);
#314=ORIENTED_EDGE('',*,*,#213,.F.);
#315=ORIENTED_EDGE('',*,*,#211,.F.);
#316=CYLINDRICAL_SURFACE('',#349,2.5);
#317=CYLINDRICAL_SURFACE('',#354,2.5);
#318=CYLINDRICAL_SURFACE('',#359,2.5);
#319=CYLINDRICAL_SURFACE('',#364,2.5);
#320=CYLINDRICAL_SURFACE('',#369,2.5);
#321=CYLINDRICAL_SURFACE('',#374,1.6);
#322=CYLINDRICAL_SURFACE('',#376,1.59999999999998);
#323=CYLINDRICAL_SURFACE('',#378,1.6);
#324=CYLINDRICAL_SURFACE('',#380,1.6);
#325=CYLINDRICAL_SURFACE('',#382,1.6);
#326=ADVANCED_FACE('',(#41),#316,.F.);
#327=ADVANCED_FACE('',(#42,#15),#30,.T.);
#328=ADVANCED_FACE('',(#43),#317,.F.);
#329=ADVANCED_FACE('',(#44,#16),#31,.T.);
#330=ADVANCED_FACE('',(#45),#318,.F.);
#331=ADVANCED_FACE('',(#46,#17),#32,.T.);
#332=ADVANCED_FACE('',(#47),#319,.F.);
#333=ADVANCED_FACE('',(#48,#18),#33,.T.);
#334=ADVANCED_FACE('',(#49),#320,.F.);
#335=ADVANCED_FACE('',(#50,#19),#34,.T.);
#336=ADVANCED_FACE('',(#51),#321,.F.);
#337=ADVANCED_FACE('',(#52),#322,.F.);
#338=ADVANCED_FACE('',(#53),#323,.F.);
#339=ADVANCED_FACE('',(#54),#324,.F.);
#340=ADVANCED_FACE('',(#55),#325,.F.);
#341=ADVANCED_FACE('',(#56),#35,.T.);
#342=ADVANCED_FACE('',(#57),#36,.T.);
#343=ADVANCED_FACE('',(#58),#37,.T.);
#344=ADVANCED_FACE('',(#59),#38,.T.);
#345=ADVANCED_FACE('',(#60,#20,#21,#22,#23,#24),#39,.T.);
#346=ADVANCED_FACE('',(#61,#25,#26,#27,#28,#29),#40,.F.);
#347=CLOSED_SHELL('',(#326,#327,#328,#329,#330,#331,#332,#333,#334,#335,
#336,#337,#338,#339,#340,#341,#342,#343,#344,#345,#346));
#348=AXIS2_PLACEMENT_3D('',#496,#390,#391);
#349=AXIS2_PLACEMENT_3D('',#497,#392,#393);
#350=AXIS2_PLACEMENT_3D('',#499,#394,#395);
#351=AXIS2_PLACEMENT_3D('',#502,#397,#398);
#352=AXIS2_PLACEMENT_3D('',#503,#399,#400);
#353=AXIS2_PLACEMENT_3D('',#505,#401,#402);
#354=AXIS2_PLACEMENT_3D('',#506,#403,#404);
#355=AXIS2_PLACEMENT_3D('',#508,#405,#406);
#356=AXIS2_PLACEMENT_3D('',#511,#408,#409);
#357=AXIS2_PLACEMENT_3D('',#512,#410,#411);
#358=AXIS2_PLACEMENT_3D('',#514,#412,#413);
#359=AXIS2_PLACEMENT_3D('',#515,#414,#415);
#360=AXIS2_PLACEMENT_3D('',#517,#416,#417);
#361=AXIS2_PLACEMENT_3D('',#520,#419,#420);
#362=AXIS2_PLACEMENT_3D('',#521,#421,#422);
#363=AXIS2_PLACEMENT_3D('',#523,#423,#424);
#364=AXIS2_PLACEMENT_3D('',#524,#425,#426);
#365=AXIS2_PLACEMENT_3D('',#526,#427,#428);
#366=AXIS2_PLACEMENT_3D('',#529,#430,#431);
#367=AXIS2_PLACEMENT_3D('',#530,#432,#433);
#368=AXIS2_PLACEMENT_3D('',#532,#434,#435);
#369=AXIS2_PLACEMENT_3D('',#533,#436,#437);
#370=AXIS2_PLACEMENT_3D('',#535,#438,#439);
#371=AXIS2_PLACEMENT_3D('',#538,#441,#442);
#372=AXIS2_PLACEMENT_3D('',#539,#443,#444);
#373=AXIS2_PLACEMENT_3D('',#541,#445,#446);
#374=AXIS2_PLACEMENT_3D('',#542,#447,#448);
#375=AXIS2_PLACEMENT_3D('',#545,#450,#451);
#376=AXIS2_PLACEMENT_3D('',#546,#452,#453);
#377=AXIS2_PLACEMENT_3D('',#549,#455,#456);
#378=AXIS2_PLACEMENT_3D('',#550,#457,#458);
#379=AXIS2_PLACEMENT_3D('',#553,#460,#461);
#380=AXIS2_PLACEMENT_3D('',#554,#462,#463);
#381=AXIS2_PLACEMENT_3D('',#557,#465,#466);
#382=AXIS2_PLACEMENT_3D('',#558,#467,#468);
#383=AXIS2_PLACEMENT_3D('',#561,#470,#471);
#384=AXIS2_PLACEMENT_3D('',#562,#472,#473);
#385=AXIS2_PLACEMENT_3D('',#571,#478,#479);
#386=AXIS2_PLACEMENT_3D('',#577,#483,#484);
#387=AXIS2_PLACEMENT_3D('',#583,#488,#489);
#388=AXIS2_PLACEMENT_3D('',#586,#492,#493);
#389=AXIS2_PLACEMENT_3D('',#587,#494,#495);
#390=DIRECTION('axis',(0.,0.,1.));
#391=DIRECTION('refdir',(1.,0.,0.));
#392=DIRECTION('center_axis',(0.,0.,-1.));
#393=DIRECTION('ref_axis',(-1.,0.,0.));
#394=DIRECTION('center_axis',(0.,0.,-1.));
#395=DIRECTION('ref_axis',(-1.,0.,0.));
#396=DIRECTION('',(0.,0.,-1.));
#397=DIRECTION('center_axis',(0.,0.,-1.));
#398=DIRECTION('ref_axis',(-1.,0.,0.));
#399=DIRECTION('center_axis',(0.,0.,1.));
#400=DIRECTION('ref_axis',(-1.,0.,0.));
#401=DIRECTION('center_axis',(0.,0.,1.));
#402=DIRECTION('ref_axis',(-1.,0.,0.));
#403=DIRECTION('center_axis',(0.,0.,-1.));
#404=DIRECTION('ref_axis',(-1.,0.,0.));
#405=DIRECTION('center_axis',(0.,0.,-1.));
#406=DIRECTION('ref_axis',(-1.,0.,0.));
#407=DIRECTION('',(0.,0.,-1.));
#408=DIRECTION('center_axis',(0.,0.,-1.));
#409=DIRECTION('ref_axis',(-1.,0.,0.));
#410=DIRECTION('center_axis',(0.,0.,1.));
#411=DIRECTION('ref_axis',(-1.,0.,0.));
#412=DIRECTION('center_axis',(0.,0.,1.));
#413=DIRECTION('ref_axis',(-1.,0.,0.));
#414=DIRECTION('center_axis',(0.,0.,-1.));
#415=DIRECTION('ref_axis',(-1.,0.,0.));
#416=DIRECTION('center_axis',(0.,0.,-1.));
#417=DIRECTION('ref_axis',(-1.,0.,0.));
#418=DIRECTION('',(0.,0.,-1.));
#419=DIRECTION('center_axis',(0.,0.,-1.));
#420=DIRECTION('ref_axis',(-1.,0.,0.));
#421=DIRECTION('center_axis',(0.,0.,1.));
#422=DIRECTION('ref_axis',(-1.,0.,0.));
#423=DIRECTION('center_axis',(0.,0.,1.));
#424=DIRECTION('ref_axis',(-1.,0.,0.));
#425=DIRECTION('center_axis',(0.,0.,-1.));
#426=DIRECTION('ref_axis',(-1.,0.,0.));
#427=DIRECTION('center_axis',(0.,0.,-1.));
#428=DIRECTION('ref_axis',(-1.,0.,0.));
#429=DIRECTION('',(0.,0.,-1.));
#430=DIRECTION('center_axis',(0.,0.,-1.));
#431=DIRECTION('ref_axis',(-1.,0.,0.));
#432=DIRECTION('center_axis',(0.,0.,1.));
#433=DIRECTION('ref_axis',(-1.,0.,0.));
#434=DIRECTION('center_axis',(0.,0.,1.));
#435=DIRECTION('ref_axis',(-1.,0.,0.));
#436=DIRECTION('center_axis',(0.,0.,-1.));
#437=DIRECTION('ref_axis',(-1.,0.,0.));
#438=DIRECTION('center_axis',(0.,0.,-1.));
#439=DIRECTION('ref_axis',(-1.,0.,0.));
#440=DIRECTION('',(0.,0.,-1.));
#441=DIRECTION('center_axis',(0.,0.,-1.));
#442=DIRECTION('ref_axis',(-1.,0.,0.));
#443=DIRECTION('center_axis',(0.,0.,1.));
#444=DIRECTION('ref_axis',(-1.,0.,0.));
#445=DIRECTION('center_axis',(0.,0.,1.));
#446=DIRECTION('ref_axis',(-1.,0.,0.));
#447=DIRECTION('center_axis',(0.,0.,1.));
#448=DIRECTION('ref_axis',(-1.,0.,0.));
#449=DIRECTION('',(0.,0.,-1.));
#450=DIRECTION('center_axis',(0.,0.,-1.));
#451=DIRECTION('ref_axis',(-1.,0.,0.));
#452=DIRECTION('center_axis',(0.,0.,1.));
#453=DIRECTION('ref_axis',(-1.,0.,0.));
#454=DIRECTION('',(0.,0.,-1.));
#455=DIRECTION('center_axis',(0.,0.,-1.));
#456=DIRECTION('ref_axis',(-1.,0.,0.));
#457=DIRECTION('center_axis',(0.,0.,1.));
#458=DIRECTION('ref_axis',(-1.,0.,0.));
#459=DIRECTION('',(0.,0.,-1.));
#460=DIRECTION('center_axis',(0.,0.,-1.));
#461=DIRECTION('ref_axis',(-1.,0.,0.));
#462=DIRECTION('center_axis',(0.,0.,1.));
#463=DIRECTION('ref_axis',(-1.,0.,0.));
#464=DIRECTION('',(0.,0.,-1.));
#465=DIRECTION('center_axis',(0.,0.,-1.));
#466=DIRECTION('ref_axis',(-1.,0.,0.));
#467=DIRECTION('center_axis',(0.,0.,1.));
#468=DIRECTION('ref_axis',(-1.,0.,0.));
#469=DIRECTION('',(0.,0.,-1.));
#470=DIRECTION('center_axis',(0.,0.,-1.));
#471=DIRECTION('ref_axis',(-1.,0.,0.));
#472=DIRECTION('center_axis',(-1.,0.,0.));
#473=DIRECTION('ref_axis',(0.,-1.,0.));
#474=DIRECTION('',(0.,1.,0.));
#475=DIRECTION('',(0.,0.,1.));
#476=DIRECTION('',(0.,-1.,0.));
#477=DIRECTION('',(0.,0.,1.));
#478=DIRECTION('center_axis',(0.,1.,0.));
#479=DIRECTION('ref_axis',(-1.,0.,0.));
#480=DIRECTION('',(1.,0.,0.));
#481=DIRECTION('',(-1.,0.,0.));
#482=DIRECTION('',(0.,0.,1.));
#483=DIRECTION('center_axis',(1.,0.,0.));
#484=DIRECTION('ref_axis',(0.,1.,0.));
#485=DIRECTION('',(0.,-1.,0.));
#486=DIRECTION('',(0.,1.,0.));
#487=DIRECTION('',(0.,0.,1.));
#488=DIRECTION('center_axis',(0.,-1.,0.));
#489=DIRECTION('ref_axis',(1.,0.,0.));
#490=DIRECTION('',(-1.,0.,0.));
#491=DIRECTION('',(1.,0.,0.));
#492=DIRECTION('center_axis',(0.,0.,1.));
#493=DIRECTION('ref_axis',(-1.,0.,0.));
#494=DIRECTION('center_axis',(0.,0.,1.));
#495=DIRECTION('ref_axis',(-1.,0.,0.));
#496=CARTESIAN_POINT('',(0.,0.,0.));
#497=CARTESIAN_POINT('Origin',(20.51,-136.66,8.56));
#498=CARTESIAN_POINT('',(23.01,-136.66,8.56));
#499=CARTESIAN_POINT('Origin',(20.51,-136.66,8.56));
#500=CARTESIAN_POINT('',(23.01,-136.66,4.56));
#501=CARTESIAN_POINT('',(23.01,-136.66,8.56));
#502=CARTESIAN_POINT('Origin',(20.51,-136.66,4.56));
#503=CARTESIAN_POINT('Origin',(20.51,-136.66,4.56));
#504=CARTESIAN_POINT('',(22.11,-136.66,4.56));
#505=CARTESIAN_POINT('Origin',(20.51,-136.66,4.56));
#506=CARTESIAN_POINT('Origin',(146.265,-100.915,8.56));
#507=CARTESIAN_POINT('',(148.765,-100.915,8.56));
#508=CARTESIAN_POINT('Origin',(146.265,-100.915,8.56));
#509=CARTESIAN_POINT('',(148.765,-100.915,4.56));
#510=CARTESIAN_POINT('',(148.765,-100.915,8.56));
#511=CARTESIAN_POINT('Origin',(146.265,-100.915,4.56));
#512=CARTESIAN_POINT('Origin',(146.265,-100.915,4.56));
#513=CARTESIAN_POINT('',(147.865,-100.915,4.56));
#514=CARTESIAN_POINT('Origin',(146.265,-100.915,4.56));
#515=CARTESIAN_POINT('Origin',(285.45,-136.73,8.56));
#516=CARTESIAN_POINT('',(287.95,-136.73,8.56));
#517=CARTESIAN_POINT('Origin',(285.45,-136.73,8.56));
#518=CARTESIAN_POINT('',(287.95,-136.73,4.56));
#519=CARTESIAN_POINT('',(287.95,-136.73,8.56));
#520=CARTESIAN_POINT('Origin',(285.45,-136.73,4.56));
#521=CARTESIAN_POINT('Origin',(285.45,-136.73,4.56));
#522=CARTESIAN_POINT('',(287.05,-136.73,4.56));
#523=CARTESIAN_POINT('Origin',(285.45,-136.73,4.56));
#524=CARTESIAN_POINT('Origin',(20.46,-44.33,8.56));
#525=CARTESIAN_POINT('',(22.96,-44.33,8.56));
#526=CARTESIAN_POINT('Origin',(20.46,-44.33,8.56));
#527=CARTESIAN_POINT('',(22.96,-44.33,4.56));
#528=CARTESIAN_POINT('',(22.96,-44.33,8.56));
#529=CARTESIAN_POINT('Origin',(20.46,-44.33,4.56));
#530=CARTESIAN_POINT('Origin',(20.46,-44.33,4.56));
#531=CARTESIAN_POINT('',(22.06,-44.33,4.56));
#532=CARTESIAN_POINT('Origin',(20.46,-44.33,4.56));
#533=CARTESIAN_POINT('Origin',(285.07,-44.19,8.56));
#534=CARTESIAN_POINT('',(287.57,-44.19,8.56));
#535=CARTESIAN_POINT('Origin',(285.07,-44.19,8.56));
#536=CARTESIAN_POINT('',(287.57,-44.19,4.56));
#537=CARTESIAN_POINT('',(287.57,-44.19,8.56));
#538=CARTESIAN_POINT('Origin',(285.07,-44.19,4.56));
#539=CARTESIAN_POINT('Origin',(285.07,-44.19,4.56));
#540=CARTESIAN_POINT('',(286.67,-44.19,4.56));
#541=CARTESIAN_POINT('Origin',(285.07,-44.19,4.56));
#542=CARTESIAN_POINT('Origin',(20.51,-136.66,1.56));
#543=CARTESIAN_POINT('',(22.11,-136.66,1.56));
#544=CARTESIAN_POINT('',(22.11,-136.66,1.56));
#545=CARTESIAN_POINT('Origin',(20.51,-136.66,1.56));
#546=CARTESIAN_POINT('Origin',(146.265,-100.915,1.56));
#547=CARTESIAN_POINT('',(147.865,-100.915,1.56));
#548=CARTESIAN_POINT('',(147.865,-100.915,1.56));
#549=CARTESIAN_POINT('Origin',(146.265,-100.915,1.56));
#550=CARTESIAN_POINT('Origin',(285.07,-44.19,1.56));
#551=CARTESIAN_POINT('',(286.67,-44.19,1.56));
#552=CARTESIAN_POINT('',(286.67,-44.19,1.56));
#553=CARTESIAN_POINT('Origin',(285.07,-44.19,1.56));
#554=CARTESIAN_POINT('Origin',(20.46,-44.33,1.56));
#555=CARTESIAN_POINT('',(22.06,-44.33,1.56));
#556=CARTESIAN_POINT('',(22.06,-44.33,1.56));
#557=CARTESIAN_POINT('Origin',(20.46,-44.33,1.56));
#558=CARTESIAN_POINT('Origin',(285.45,-136.73,1.56));
#559=CARTESIAN_POINT('',(287.05,-136.73,1.56));
#560=CARTESIAN_POINT('',(287.05,-136.73,1.56));
#561=CARTESIAN_POINT('Origin',(285.45,-136.73,1.56));
#562=CARTESIAN_POINT('Origin',(16.89,-40.84,1.56));
#563=CARTESIAN_POINT('',(16.89,-140.2,1.56));
#564=CARTESIAN_POINT('',(16.89,-40.84,1.56));
#565=CARTESIAN_POINT('',(16.89,-140.2,1.56));
#566=CARTESIAN_POINT('',(16.89,-140.2,8.56));
#567=CARTESIAN_POINT('',(16.89,-140.2,1.56));
#568=CARTESIAN_POINT('',(16.89,-40.84,8.56));
#569=CARTESIAN_POINT('',(16.89,-140.2,8.56));
#570=CARTESIAN_POINT('',(16.89,-40.84,1.56));
#571=CARTESIAN_POINT('Origin',(288.89,-40.84,1.56));
#572=CARTESIAN_POINT('',(288.89,-40.84,1.56));
#573=CARTESIAN_POINT('',(16.89,-40.84,1.56));
#574=CARTESIAN_POINT('',(288.89,-40.84,8.56));
#575=CARTESIAN_POINT('',(16.89,-40.84,8.56));
#576=CARTESIAN_POINT('',(288.89,-40.84,1.56));
#577=CARTESIAN_POINT('Origin',(288.89,-140.2,1.56));
#578=CARTESIAN_POINT('',(288.89,-140.2,1.56));
#579=CARTESIAN_POINT('',(288.89,-40.84,1.56));
#580=CARTESIAN_POINT('',(288.89,-140.2,8.56));
#581=CARTESIAN_POINT('',(288.89,-40.84,8.56));
#582=CARTESIAN_POINT('',(288.89,-140.2,1.56));
#583=CARTESIAN_POINT('Origin',(16.89,-140.2,1.56));
#584=CARTESIAN_POINT('',(288.89,-140.2,1.56));
#585=CARTESIAN_POINT('',(288.89,-140.2,8.56));
#586=CARTESIAN_POINT('Origin',(152.89,-90.52,8.56));
#587=CARTESIAN_POINT('Origin',(152.89,-90.52,1.56));
#588=UNCERTAINTY_MEASURE_WITH_UNIT(LENGTH_MEASURE(0.01),#592,
'DISTANCE_ACCURACY_VALUE',
'Maximum model space distance between geometric entities at asserted c
onnectivities');
#589=UNCERTAINTY_MEASURE_WITH_UNIT(LENGTH_MEASURE(0.01),#592,
'DISTANCE_ACCURACY_VALUE',
'Maximum model space distance between geometric entities at asserted c
onnectivities');
#590=(
GEOMETRIC_REPRESENTATION_CONTEXT(3)
GLOBAL_UNCERTAINTY_ASSIGNED_CONTEXT((#588))
GLOBAL_UNIT_ASSIGNED_CONTEXT((#592,#593,#594))
REPRESENTATION_CONTEXT('','3D')
);
#591=(
GEOMETRIC_REPRESENTATION_CONTEXT(3)
GLOBAL_UNCERTAINTY_ASSIGNED_CONTEXT((#589))
GLOBAL_UNIT_ASSIGNED_CONTEXT((#592,#593,#594))
REPRESENTATION_CONTEXT('','3D')
);
#592=(
LENGTH_UNIT()
NAMED_UNIT(*)
SI_UNIT(.MILLI.,.METRE.)
);
#593=(
NAMED_UNIT(*)
PLANE_ANGLE_UNIT()
SI_UNIT($,.RADIAN.)
);
#594=(
NAMED_UNIT(*)
SI_UNIT($,.STERADIAN.)
SOLID_ANGLE_UNIT()
);
#595=SHAPE_DEFINITION_REPRESENTATION(#596,#597);
#596=PRODUCT_DEFINITION_SHAPE('',$,#599);
#597=SHAPE_REPRESENTATION('',(#348),#590);
#598=PRODUCT_DEFINITION_CONTEXT('part definition',#603,'design');
#599=PRODUCT_DEFINITION('2026-08-29-22-15-23-683','Hackpad PCB',#600,#598);
#600=PRODUCT_DEFINITION_FORMATION('',$,#605);
#601=PRODUCT_RELATED_PRODUCT_CATEGORY('Hackpad PCB','Hackpad PCB',(#605));
#602=APPLICATION_PROTOCOL_DEFINITION('international standard',
'automotive_design',2009,#603);
#603=APPLICATION_CONTEXT(
'Core Data for Automotive Mechanical Design Process');
#604=PRODUCT_CONTEXT('part definition',#603,'mechanical');
#605=PRODUCT('2026-08-29-22-15-23-683','Hackpad PCB',
'KiCad electronic assembly',(#604));
#606=PRESENTATION_STYLE_ASSIGNMENT((#607));
#607=SURFACE_STYLE_USAGE(.BOTH.,#608);
#608=SURFACE_SIDE_STYLE('',(#609));
#609=SURFACE_STYLE_FILL_AREA(#610);
#610=FILL_AREA_STYLE('Steel - Satin',(#611));
#611=FILL_AREA_STYLE_COLOUR('Steel - Satin',#612);
#612=COLOUR_RGB('Steel - Satin',0.627450980392157,0.627450980392157,0.627450980392157);
ENDSEC;
END-ISO-10303-21;
